<svg width="48" height="48" viewBox="0 0 48 48" fill="none" xmlns="http://www.w3.org/2000/svg">
    <rect x="47.5" y="47.5" width="47" height="47" rx="7.5" transform="rotate(-180 47.5 47.5)" fill="none" />
    <rect x="47.5" y="47.5" width="47" height="47" rx="7.5" transform="rotate(-180 47.5 47.5)" stroke="#0D0D0D" />
    <path
        d="M17.4088 23.044L25.3086 15.3964C25.8546 14.8679 26.7375 14.8679 27.2777 15.3964L28.5905 16.6673C29.1365 17.1959 29.1365 18.0506 28.5905 18.5736L22.9909 23.9944L28.5905 29.4152C29.1365 29.9438 29.1365 30.7985 28.5905 31.3215L27.2835 32.6036C26.7375 33.1321 25.8546 33.1321 25.3144 32.6036L17.4146 24.956C16.8628 24.4274 16.8628 23.5726 17.4088 23.044Z"
        fill="#0D0D0D" />
</svg>