<svg width="120" height="20" viewBox="0 0 120 20" fill="none" xmlns="http://www.w3.org/2000/svg">
<path d="M0 15.1677V0H7.18617C8.50695 0 9.65971 0.184805 10.6444 0.550992C11.6292 0.920602 12.3912 1.45106 12.9343 2.14921C13.4736 2.84736 13.7432 3.68925 13.7432 4.6783C13.7432 5.4141 13.5869 6.06434 13.2782 6.62218C12.9695 7.18344 12.5514 7.65229 12.0238 8.03559C11.4963 8.41889 10.9062 8.70637 10.2537 8.90144L14.7201 15.1643H9.33928L5.79114 9.75702H4.55241V15.1643H0V15.1677ZM4.55241 6.60849H6.67817C7.44407 6.60849 8.04976 6.48186 8.49132 6.22519C8.93289 5.96852 9.15172 5.54073 9.15172 4.94182C9.15172 4.34292 8.9407 3.90144 8.51477 3.64134C8.08883 3.38125 7.49878 3.2512 6.7407 3.2512H4.55241V6.60849Z" fill="black"/>
<path d="M23.1881 15.4928C21.7696 15.4928 20.527 15.2464 19.4641 14.7501C18.4012 14.2539 17.5728 13.566 16.9827 12.6796C16.3927 11.7967 16.0996 10.7597 16.0996 9.5756C16.0996 8.70975 16.2715 7.91578 16.6193 7.19709C16.9671 6.4784 17.4517 5.85896 18.0808 5.33535C18.706 4.81174 19.4485 4.40448 20.3003 4.11701C21.1522 3.82953 22.09 3.68237 23.1138 3.68237C24.2588 3.68237 25.2748 3.85691 26.1618 4.20941C27.0488 4.55849 27.7796 5.0513 28.3579 5.681C28.9362 6.31413 29.3348 7.04993 29.5497 7.89524C29.7686 8.74055 29.7647 9.66115 29.5419 10.657H20.1675C20.1909 11.0267 20.3394 11.3484 20.6051 11.6221C20.8748 11.8959 21.2382 12.1115 21.6993 12.2655C22.1604 12.4195 22.6918 12.4983 23.2936 12.4983C24.0595 12.4983 24.7785 12.4161 25.4467 12.2553C26.1149 12.0944 26.7714 11.8343 27.4123 11.4818L28.7721 14.1136C28.3853 14.3737 27.8773 14.6064 27.2442 14.8117C26.6151 15.0171 25.9391 15.1813 25.2201 15.3045C24.5011 15.4278 23.8211 15.4894 23.1803 15.4894L23.1881 15.4928ZM20.4527 8.06293H25.2904C25.2826 7.58723 25.0716 7.20393 24.6535 6.91304C24.2353 6.62556 23.6844 6.4784 22.9888 6.4784C22.2932 6.4784 21.7032 6.62214 21.2382 6.91304C20.7732 7.20051 20.5113 7.58381 20.4527 8.06293Z" fill="black"/>
<path d="M55.473 15.4929C54.3007 15.4929 53.3356 15.2944 52.5775 14.9042C51.8194 14.5106 51.2528 13.9528 50.8816 13.2307C50.5103 12.5086 50.3267 11.6599 50.3267 10.6845V4.00757H54.8283V10.1301C54.8283 10.6948 54.9885 11.1328 55.3089 11.4511C55.6293 11.7694 56.1139 11.9268 56.7547 11.9268C57.1651 11.9268 57.5246 11.8481 57.8254 11.6941C58.1263 11.5401 58.3569 11.3211 58.5171 11.0404C58.6773 10.7598 58.7594 10.4347 58.7594 10.0651V4.00757H63.261V15.1677H59.4159V14.0315C59.0368 14.4011 58.5445 14.7365 57.9388 15.0377C57.3331 15.3423 56.5086 15.4929 55.4691 15.4929H55.473Z" fill="black"/>
<path d="M72.8622 15.4928C71.4437 15.4928 70.201 15.2464 69.1382 14.7501C68.0753 14.2539 67.2469 13.566 66.6568 12.6796C66.0668 11.7967 65.7737 10.7597 65.7737 9.5756C65.7737 8.70975 65.9456 7.91578 66.2934 7.19709C66.6412 6.4784 67.1257 5.85896 67.7549 5.33535C68.3801 4.81174 69.1225 4.40448 69.9744 4.11701C70.8263 3.82953 71.7641 3.68237 72.7879 3.68237C73.9329 3.68237 74.9488 3.85691 75.8359 4.20941C76.7229 4.55849 77.4536 5.0513 78.032 5.681C78.6103 6.31413 79.0089 7.04993 79.2238 7.89524C79.4426 8.74055 79.4387 9.66115 79.216 10.657H69.8415C69.865 11.0267 70.0135 11.3484 70.2792 11.6221C70.5488 11.8959 70.9122 12.1115 71.3733 12.2655C71.8344 12.4195 72.3659 12.4983 72.9677 12.4983C73.7336 12.4983 74.4526 12.4161 75.1208 12.2553C75.789 12.0944 76.4455 11.8343 77.0863 11.4818L78.4462 14.1136C78.0593 14.3737 77.5513 14.6064 76.9183 14.8117C76.2892 15.0171 75.6131 15.1813 74.8941 15.3045C74.1751 15.4278 73.4952 15.4894 72.8543 15.4894L72.8622 15.4928ZM70.1268 8.06293H74.9645C74.9567 7.58723 74.7456 7.20393 74.3275 6.91304C73.9094 6.62556 73.3545 6.4784 72.6629 6.4784C71.9712 6.4784 71.3772 6.62214 70.9122 6.91304C70.4472 7.20051 70.1854 7.58381 70.1268 8.06293Z" fill="black"/>
<path d="M86.8356 15.469C85.6164 15.469 84.5067 15.3423 83.5102 15.0857C82.5138 14.829 81.6424 14.4662 80.8999 13.9974L82.248 11.3211C82.9749 11.7044 83.7369 12.009 84.5418 12.2314C85.3468 12.4539 86.0971 12.5668 86.8005 12.5668C87.3866 12.5668 87.8321 12.5052 88.1369 12.3786C88.4417 12.252 88.5941 12.0672 88.5941 11.8208C88.5941 11.6052 88.4534 11.4477 88.172 11.3553C87.8907 11.2629 87.328 11.15 86.4761 11.0199C84.7216 10.7804 83.4321 10.3629 82.6154 9.76396C81.7987 9.16505 81.3923 8.33685 81.3923 7.28278C81.3923 6.54014 81.6306 5.8899 82.1035 5.33206C82.5763 4.77765 83.2289 4.34301 84.0573 4.03843C84.8857 3.73042 85.8392 3.57642 86.9216 3.57642C88.004 3.57642 88.9809 3.69962 89.9266 3.94603C90.8761 4.19243 91.6811 4.5244 92.3493 4.94192L91.052 7.61817C90.6964 7.39572 90.2939 7.19722 89.8445 7.02953C89.3951 6.85842 88.9301 6.72494 88.4456 6.62912C87.9649 6.52987 87.5038 6.48196 87.0662 6.48196C86.5543 6.48196 86.144 6.54014 85.8353 6.65992C85.5266 6.7797 85.3703 6.9474 85.3703 7.163C85.3703 7.37861 85.4992 7.53946 85.761 7.6387C86.0189 7.74137 86.5738 7.87142 87.4257 8.02885C89.2896 8.35397 90.6104 8.79202 91.3841 9.33959C92.1578 9.88716 92.5486 10.6606 92.5486 11.6565C92.5486 12.4231 92.3063 13.0904 91.8257 13.6654C91.3451 14.2403 90.6729 14.6852 89.8172 14.9967C88.9575 15.3115 87.9649 15.469 86.8356 15.469Z" fill="black"/>
<path d="M93.9321 7.10488V4.00769H96.6792V7.10488H93.9321ZM100.982 15.4896C99.5123 15.4896 98.3673 15.1302 97.535 14.4115C96.7066 13.6928 96.2923 12.6251 96.2923 11.2117V0.835205H100.794V4.00769H103.615V7.10488H100.794V10.5717C100.794 11.1056 100.939 11.482 101.228 11.6976C101.517 11.9132 101.872 12.0227 102.291 12.0227C102.537 12.0227 102.787 11.9954 103.037 11.9406C103.287 11.8859 103.521 11.8037 103.736 11.6976L104.268 14.7743C103.881 14.9694 103.396 15.1371 102.822 15.2774C102.244 15.4177 101.63 15.4896 100.978 15.4896H100.982Z" fill="black"/>
<path d="M108.973 19.9966C108.355 19.9966 107.749 19.9453 107.159 19.8392C106.569 19.7331 106.03 19.5688 105.546 19.3464L106.487 16.0644C106.761 16.1876 107.062 16.2834 107.39 16.3553C107.718 16.4271 108.035 16.4648 108.332 16.4648C108.742 16.4648 109.105 16.3929 109.422 16.2492C109.734 16.1054 109.949 15.859 110.067 15.5134L110.192 15.1677L105.268 4.01099H110.129L112.728 11.345L115.252 4.01099H120L114.791 16.1226C114.353 17.0842 113.834 17.8474 113.232 18.4121C112.63 18.9802 111.97 19.384 111.255 19.6304C110.536 19.8768 109.777 20 108.98 20L108.973 19.9966Z" fill="black"/>
<path d="M46.9463 9.59612C46.9463 9.57901 46.9463 9.5619 46.9463 9.54136C46.9111 6.30385 43.7069 3.69263 39.7562 3.69263C35.8056 3.69263 32.5623 6.33465 32.5623 9.59612C32.5623 12.8576 35.7822 15.4996 39.7562 15.4996C40.7097 15.4996 41.6202 15.3456 42.4525 15.0684V18.9014C42.4525 18.9014 46.9502 15.3593 46.9502 9.59612H46.9463Z" fill="#26BF67"/>
</svg>
