<svg width="100" height="107" viewBox="0 0 100 107" fill="none" xmlns="http://www.w3.org/2000/svg">
<path d="M99.9728 41.5335C99.9728 41.4131 99.9728 41.2927 99.9728 41.1483C99.7284 18.3711 77.4579 0 50 0C22.5421 0 0 18.5878 0 41.5335C0 64.4793 22.3791 83.067 50 83.067C56.6268 83.067 62.9549 81.9835 68.7398 80.0333V107C68.7398 107 100 82.0799 100 41.5335H99.9728Z" fill="#26BF67"/>
<path d="M34 64.32V20H52.39C55.77 20 58.72 20.54 61.24 21.61C63.76 22.69 65.71 24.24 67.1 26.28C68.48 28.32 69.17 30.78 69.17 33.67C69.17 35.82 68.77 37.72 67.98 39.35C67.19 40.99 66.12 42.36 64.77 43.48C63.42 44.6 61.91 45.44 60.24 46.01L71.67 64.31H57.9L48.82 48.51H45.65V64.31H34V64.32ZM45.65 39.31H51.09C53.05 39.31 54.6 38.94 55.73 38.19C56.86 37.44 57.42 36.19 57.42 34.44C57.42 32.69 56.88 31.4 55.79 30.64C54.7 29.88 53.19 29.5 51.25 29.5H45.65V39.31Z" fill="black"/>
</svg>
