<svg width="25" height="25" viewBox="0 0 25 25" fill="none" xmlns="http://www.w3.org/2000/svg">
<rect x="0.5" y="0.5" width="24" height="24" rx="4" fill="#D37C7C"/>
<path d="M14.8432 12.5L19.1075 8.23565C19.6308 7.71236 19.6308 6.86392 19.1075 6.3402L18.1598 5.39247C17.6365 4.86918 16.7881 4.86918 16.2643 5.39247L12 9.65682L7.73565 5.39247C7.21236 4.86918 6.36392 4.86918 5.8402 5.39247L4.89247 6.3402C4.36918 6.86349 4.36918 7.71193 4.89247 8.23565L9.15682 12.5L4.89247 16.7643C4.36918 17.2876 4.36918 18.1361 4.89247 18.6598L5.8402 19.6075C6.36349 20.1308 7.21236 20.1308 7.73565 19.6075L12 15.3432L16.2643 19.6075C16.7876 20.1308 17.6365 20.1308 18.1598 19.6075L19.1075 18.6598C19.6308 18.1365 19.6308 17.2881 19.1075 16.7643L14.8432 12.5Z" fill="white"/>
</svg>
