<svg xmlns="http://www.w3.org/2000/svg" width="24" height="24" viewBox="0 0 24 24" fill="none">
<rect width="24" height="24" rx="4" fill="#ECEEF2"/>
<path d="M12.0134 5C9.74519 5 8.27607 5.89422 7.12267 7.48899C6.91344 7.77829 6.97794 8.17494 7.26981 8.38789L8.49565 9.28228C8.79042 9.49734 9.20982 9.44705 9.44059 9.16886C10.1524 8.31078 10.6804 7.81673 11.7923 7.81673C12.6665 7.81673 13.7478 8.35811 13.7478 9.17383C13.7478 9.79049 13.2188 10.1072 12.3556 10.5728C11.349 11.1159 10.0169 11.7917 10.0169 13.4824V13.75C10.0169 14.1124 10.3222 14.4062 10.6989 14.4062H12.7583C13.135 14.4062 13.4403 14.1124 13.4403 13.75V13.5921C13.4403 12.4202 17 12.3714 17 9.2C17 6.81169 14.4254 5 12.0134 5ZM11.7286 15.2118C10.6432 15.2118 9.76016 16.0615 9.76016 17.1059C9.76016 18.1503 10.6432 19 11.7286 19C12.814 19 13.6971 18.1503 13.6971 17.1059C13.6971 16.0614 12.814 15.2118 11.7286 15.2118Z" fill="white"/>
</svg>